<?xml version="1.0" encoding="UTF-8" standalone="no" ?>
<!DOCTYPE svg PUBLIC "-//W3C//DTD SVG 1.1//EN" "http://www.w3.org/Graphics/SVG/1.1/DTD/svg11.dtd">
<svg xmlns="http://www.w3.org/2000/svg" xmlns:xlink="http://www.w3.org/1999/xlink" version="1.1" width="400" height="400" viewBox="0 0 400 400" xml:space="preserve">
<desc>Created with Fabric.js 3.6.2</desc>
<defs>
</defs>
<g transform="matrix(8.33 0 0 8.33 155.02 128.33)" id="Layer_1"  >
<path style="stroke: none; stroke-width: 1; stroke-dasharray: none; stroke-linecap: butt; stroke-dashoffset: 0; stroke-linejoin: miter; stroke-miterlimit: 4; fill: current; fill-rule: nonzero; opacity: 1;"  transform=" translate(-6.6, -3.4)" d="M 6.7 6.3 C 5.2 6.3 3.9 5 3.9 3.4 c 0 -1.6 1.2 -2.9 2.7 -2.9 c 1.5 0 2.7 1.3 2.7 2.9 C 9.4 5 8.2 6.3 6.7 6.3 z M 6.7 1.5 c -1 0 -1.7 0.8 -1.7 1.9 c 0 1 0.8 1.9 1.7 1.9 c 1 0 1.7 -0.8 1.7 -1.9 C 8.4 2.3 7.7 1.5 6.7 1.5 z" stroke-linecap="round" />
</g>
<g transform="matrix(8.33 0 0 8.33 245 128.33)" id="Layer_1"  >
<path style="stroke: none; stroke-width: 1; stroke-dasharray: none; stroke-linecap: butt; stroke-dashoffset: 0; stroke-linejoin: miter; stroke-miterlimit: 4; fill: current; fill-rule: nonzero; opacity: 1;"  transform=" translate(-17.4, -3.4)" d="M 17.4 6.3 c -1.5 0 -2.7 -1.3 -2.7 -2.9 c 0 -1.6 1.2 -2.9 2.7 -2.9 c 1.5 0 2.7 1.3 2.7 2.9 C 20.1 5 18.9 6.3 17.4 6.3 z M 17.4 1.5 c -1 0 -1.7 0.8 -1.7 1.9 c 0 1 0.8 1.9 1.7 1.9 c 1 0 1.7 -0.8 1.7 -1.9 C 19.1 2.3 18.4 1.5 17.4 1.5 z" stroke-linecap="round" />
</g>
<g transform="matrix(8.33 0 0 8.33 199.63 229.31)" id="Layer_1"  >
<path style="stroke: none; stroke-width: 1; stroke-dasharray: none; stroke-linecap: butt; stroke-dashoffset: 0; stroke-linejoin: miter; stroke-miterlimit: 4; fill: current; fill-rule: nonzero; opacity: 1;"  transform=" translate(-11.96, -15.52)" d="M 17 23.5 L 17 23.5 c -0.8 0 -1.3 -0.1 -1.7 -0.2 c -0.2 -0.1 -0.3 -0.2 -0.3 -0.4 c 0 -0.1 -0.1 -1.5 0.1 -7.9 c -0.7 0.3 -1.8 0.6 -3.1 0.6 c -1.1 0 -2.1 -0.2 -3.1 -0.6 c 0 1.4 0.1 4.5 0 7.9 c 0 0.2 -0.2 0.4 -0.4 0.5 c -0.1 0 -1.3 0.2 -2.6 0.2 c -0.6 0 -1.2 -0.1 -1.5 -0.2 C 4.1 23.2 4 23 3.9 22.8 c 0 -0.1 -0.2 -8.2 0 -14.8 c 0 -0.2 0.1 -0.4 0.3 -0.5 c 0.2 -0.1 0.4 0 0.5 0.1 c 0 0 3.3 3.7 7.5 3.7 c 2.5 0 4.8 -1.2 7 -3.7 c 0.1 -0.2 0.4 -0.2 0.6 -0.1 c 0.2 0.1 0.3 0.3 0.3 0.5 c 0 0.1 0 9.4 0 14.8 c 0 0.3 -0.2 0.5 -0.4 0.5 C 19.6 23.3 18.2 23.5 17 23.5 z M 16 22.4 c 0.2 0 0.5 0.1 1 0.1 c 0.8 0 1.6 -0.1 2.1 -0.1 c 0 -4.2 0 -10.4 0 -13.1 c -2.1 2.1 -4.4 3.1 -6.8 3.1 c -3.4 0 -6.1 -2 -7.4 -3.2 c -0.1 5.4 0 11.6 0 13.2 c 0.8 0.1 2.2 0 2.9 -0.1 c 0.1 -4.4 0 -8.1 0 -8.2 c 0 -0.2 0.1 -0.3 0.2 -0.4 c 0.1 -0.1 0.3 -0.1 0.5 0 c 1.1 0.6 2.2 0.8 3.4 0.8 c 2 0 3.3 -0.8 3.4 -0.8 c 0.2 -0.1 0.4 -0.1 0.5 0 c 0.2 0.1 0.3 0.3 0.2 0.4 C 16 19.5 16 21.7 16 22.4 z" stroke-linecap="round" />
</g>
</svg>