<?xml version="1.0" encoding="UTF-8" standalone="no" ?>
<!DOCTYPE svg PUBLIC "-//W3C//DTD SVG 1.1//EN" "http://www.w3.org/Graphics/SVG/1.1/DTD/svg11.dtd">

<svg xmlns="http://www.w3.org/2000/svg" xmlns:xlink="http://www.w3.org/1999/xlink" version="1.1" width="400" height="400" viewBox="0 0 400 400" xml:space="preserve">
<desc>Created with Fabric.js 3.6.2</desc>
<defs>
</defs>
<g transform="matrix(11.11 0 0 11.11 200 200)"  >
<path style="stroke: none; stroke-width: 1; stroke-dasharray: none; stroke-linecap: butt; stroke-dashoffset: 0; stroke-linejoin: miter; stroke-miterlimit: 4; fill: current; fill-rule: nonzero; opacity: 1;"  transform=" translate(-12, -11.99)" d="M 20 8 h 0 L 14 2.74 a 3 3 0 0 0 -4 0 L 4 8 a 3 3 0 0 0 -1 2.26 V 19 a 3 3 0 0 0 3 3 H 18 a 3 3 0 0 0 3 -3 V 10.25 A 3 3 0 0 0 20 8 Z M 14 20 H 10 V 15 a 1 1 0 0 1 1 -1 h 2 a 1 1 0 0 1 1 1 Z m 5 -1 a 1 1 0 0 1 -1 1 H 16 V 15 a 3 3 0 0 0 -3 -3 H 11 a 3 3 0 0 0 -3 3 v 5 H 6 a 1 1 0 0 1 -1 -1 V 10.25 a 1 1 0 0 1 0.34 -0.75 l 6 -5.25 a 1 1 0 0 1 1.32 0 l 6 5.25 a 1 1 0 0 1 0.34 0.75 Z" stroke-linecap="round" />
</g>
</svg>